<svg width="73" height="33" viewBox="0 0 73 33" fill="none" xmlns="http://www.w3.org/2000/svg">
<g filter="url(#filter0_d_15_6)">
<mask id="path-1-inside-1_15_6" fill="white">
<path fill-rule="evenodd" clip-rule="evenodd" d="M19.5 2C12.5964 2 7 7.59644 7 14.5C7 16.0838 7.29456 17.5988 7.83187 18.9932C7.61069 22.1596 6.44968 25.7484 3.41276 25.4111C-1.58855 24.8555 8.00739 28.6577 11.7483 24.5778C11.7973 24.5243 11.8442 24.4706 11.8892 24.4167C13.997 26.0368 16.636 27 19.5 27H54.5C61.4036 27 67 21.4036 67 14.5C67 7.59644 61.4036 2 54.5 2H19.5Z"/>
</mask>
<path fill-rule="evenodd" clip-rule="evenodd" d="M19.5 2C12.5964 2 7 7.59644 7 14.5C7 16.0838 7.29456 17.5988 7.83187 18.9932C7.61069 22.1596 6.44968 25.7484 3.41276 25.4111C-1.58855 24.8555 8.00739 28.6577 11.7483 24.5778C11.7973 24.5243 11.8442 24.4706 11.8892 24.4167C13.997 26.0368 16.636 27 19.5 27H54.5C61.4036 27 67 21.4036 67 14.5C67 7.59644 61.4036 2 54.5 2H19.5Z" fill="url(#paint0_linear_15_6)"/>
<path d="M7.83187 18.9932L8.82944 19.0629L8.84493 18.8411L8.76499 18.6337L7.83187 18.9932ZM3.41276 25.4111L3.52317 24.4172L3.41276 25.4111ZM11.7483 24.5778L11.0112 23.9019L11.0112 23.9019L11.7483 24.5778ZM11.8892 24.4167L12.4986 23.6238L11.7364 23.038L11.1209 23.7765L11.8892 24.4167ZM8 14.5C8 8.14873 13.1487 3 19.5 3V1C12.0442 1 6 7.04416 6 14.5H8ZM8.76499 18.6337C8.27118 17.3521 8 15.9589 8 14.5H6C6 16.2087 6.31793 17.8455 6.89875 19.3528L8.76499 18.6337ZM3.30236 26.405C4.27843 26.5134 5.1479 26.3054 5.88491 25.8429C6.60603 25.3904 7.14707 24.7285 7.5516 24.0031C8.35141 22.5688 8.71418 20.7129 8.82944 19.0629L6.8343 18.9235C6.72838 20.4399 6.40005 21.9616 5.80483 23.029C5.51185 23.5544 5.17939 23.9244 4.82178 24.1489C4.48006 24.3633 4.06556 24.4775 3.52317 24.4172L3.30236 26.405ZM11.0112 23.9019C10.2767 24.7031 9.21295 25.1613 7.99898 25.3648C6.78768 25.5679 5.50874 25.5022 4.46554 25.3295C3.94666 25.2436 3.50346 25.1341 3.17325 25.0274C2.79411 24.905 2.68749 24.8252 2.7234 24.8554C2.74024 24.8696 2.82381 24.9404 2.89529 25.075C2.97639 25.2277 3.06131 25.511 2.93903 25.8328C2.82866 26.1232 2.61792 26.2581 2.53491 26.3029C2.48635 26.3292 2.44702 26.3437 2.42461 26.3511C2.40139 26.3587 2.38628 26.362 2.38237 26.3628C2.38159 26.3629 2.4487 26.3517 2.62308 26.3548C2.78666 26.3578 3.00988 26.3725 3.30236 26.405L3.52317 24.4172C2.89697 24.3477 2.3593 24.3259 1.98078 24.4035C1.87752 24.4247 1.73232 24.4633 1.58412 24.5434C1.44242 24.62 1.19526 24.7913 1.06949 25.1223C0.931814 25.4845 1.02236 25.8123 1.12885 26.0129C1.22573 26.1954 1.35446 26.3173 1.43499 26.3851C1.72566 26.6299 2.17019 26.8052 2.55868 26.9307C2.9961 27.0719 3.53702 27.203 4.13886 27.3026C5.33709 27.501 6.84597 27.5861 8.32974 27.3373C9.81086 27.0889 11.3495 26.4924 12.4854 25.2536L11.0112 23.9019ZM11.1209 23.7765C11.0863 23.8181 11.0498 23.8599 11.0112 23.9019L12.4854 25.2536C12.5449 25.1887 12.6022 25.1231 12.6574 25.0569L11.1209 23.7765ZM19.5 26C16.864 26 14.4378 25.1144 12.4986 23.6238L11.2798 25.2096C13.5562 26.9593 16.408 28 19.5 28V26ZM54.5 26H19.5V28H54.5V26ZM66 14.5C66 20.8513 60.8513 26 54.5 26V28C61.9558 28 68 21.9558 68 14.5H66ZM54.5 3C60.8513 3 66 8.14873 66 14.5H68C68 7.04416 61.9558 1 54.5 1V3ZM19.5 3H54.5V1H19.5V3Z" fill="white" fill-opacity="0.5" mask="url(#path-1-inside-1_15_6)"/>
</g>
<path d="M22.7418 12.897H23.3158V16.607H22.7418V12.897ZM22.7418 16.439H23.1478C23.8828 16.439 24.5688 16.404 25.3668 16.243L25.4438 16.74C24.6178 16.908 23.9108 16.943 23.1478 16.943H22.7418V16.439ZM27.2568 12.218H27.8168V18.546H27.2568V12.218ZM24.4988 14.339H26.0808V14.822H24.4988V14.339ZM25.9198 12.365H26.4658V18.224H25.9198V12.365ZM30.0213 12.491H30.5323V16.887H30.0213V12.491ZM30.0213 17.251H30.5323V18.196H30.0213V17.251ZM40.1573 12.211H40.7453V18.546H40.1573V12.211ZM40.5843 14.78H41.7533V15.263H40.5843V14.78ZM38.5403 12.897H39.1073C39.1073 14.696 38.2813 16.32 36.2373 17.349L35.9153 16.901C37.6653 16.012 38.5403 14.661 38.5403 12.988V12.897ZM36.2093 12.897H38.8413V13.373H36.2093V12.897ZM43.7197 15.473H44.2937V17.37H43.7197V15.473ZM46.0577 15.473H46.6387V17.37H46.0577V15.473ZM42.3197 17.258H48.0527V17.741H42.3197V17.258ZM45.1757 12.617C46.5127 12.617 47.4717 13.254 47.4717 14.248C47.4717 15.235 46.5127 15.872 45.1757 15.872C43.8317 15.872 42.8727 15.235 42.8727 14.248C42.8727 13.254 43.8317 12.617 45.1757 12.617ZM45.1757 13.079C44.1607 13.079 43.4327 13.541 43.4327 14.248C43.4327 14.948 44.1607 15.41 45.1757 15.41C46.1907 15.41 46.9117 14.948 46.9117 14.248C46.9117 13.541 46.1907 13.079 45.1757 13.079ZM48.8222 15.949H49.2562V15.515H50.1942V15.949H50.9852V15.515H51.4892V16.026H51.0552V16.46H50.1172V16.026H49.3262V16.46H48.8222V15.949Z" fill="black"/>
<defs>
<filter id="filter0_d_15_6" x="0" y="0" width="73" height="33" filterUnits="userSpaceOnUse" color-interpolation-filters="sRGB">
<feFlood flood-opacity="0" result="BackgroundImageFix"/>
<feColorMatrix in="SourceAlpha" type="matrix" values="0 0 0 0 0 0 0 0 0 0 0 0 0 0 0 0 0 0 127 0" result="hardAlpha"/>
<feOffset dx="2" dy="2"/>
<feGaussianBlur stdDeviation="2"/>
<feComposite in2="hardAlpha" operator="out"/>
<feColorMatrix type="matrix" values="0 0 0 0 0 0 0 0 0 0 0 0 0 0 0 0 0 0 0.15 0"/>
<feBlend mode="normal" in2="BackgroundImageFix" result="effect1_dropShadow_15_6"/>
<feBlend mode="normal" in="SourceGraphic" in2="effect1_dropShadow_15_6" result="shape"/>
</filter>
<linearGradient id="paint0_linear_15_6" x1="63" y1="2" x2="63" y2="27" gradientUnits="userSpaceOnUse">
<stop stop-color="#D5DFF2"/>
<stop offset="1" stop-color="#E2E0E1"/>
</linearGradient>
</defs>
</svg>
