<svg width="68" height="33" viewBox="0 0 68 33" fill="none" xmlns="http://www.w3.org/2000/svg">
<g filter="url(#filter0_d_15_7)">
<mask id="path-1-inside-1_15_7" fill="white">
<path fill-rule="evenodd" clip-rule="evenodd" d="M44.5 2C51.4036 2 57 7.59644 57 14.5C57 16.0838 56.7054 17.5988 56.1681 18.9932C56.3893 22.1596 57.5503 25.7484 60.5872 25.4111C65.5886 24.8555 55.9926 28.6577 52.2517 24.5778C52.2027 24.5243 52.1557 24.4706 52.1108 24.4167C50.003 26.0368 47.364 27 44.5 27H14.5C7.59644 27 2 21.4036 2 14.5C2 7.59644 7.59644 2 14.5 2H44.5Z"/>
</mask>
<path fill-rule="evenodd" clip-rule="evenodd" d="M44.5 2C51.4036 2 57 7.59644 57 14.5C57 16.0838 56.7054 17.5988 56.1681 18.9932C56.3893 22.1596 57.5503 25.7484 60.5872 25.4111C65.5886 24.8555 55.9926 28.6577 52.2517 24.5778C52.2027 24.5243 52.1557 24.4706 52.1108 24.4167C50.003 26.0368 47.364 27 44.5 27H14.5C7.59644 27 2 21.4036 2 14.5C2 7.59644 7.59644 2 14.5 2H44.5Z" fill="url(#paint0_linear_15_7)"/>
<path d="M56.1681 18.9932L55.1706 19.0629L55.1551 18.8411L55.235 18.6337L56.1681 18.9932ZM60.5872 25.4111L60.4768 24.4172H60.4768L60.5872 25.4111ZM52.2517 24.5778L51.5146 25.2536L51.5146 25.2536L52.2517 24.5778ZM52.1108 24.4167L51.5014 23.6238L52.2636 23.038L52.8791 23.7765L52.1108 24.4167ZM56 14.5C56 8.14873 50.8513 3 44.5 3V1C51.9558 1 58 7.04416 58 14.5H56ZM55.235 18.6337C55.7288 17.3522 56 15.9589 56 14.5H58C58 16.2087 57.6821 17.8455 57.1012 19.3528L55.235 18.6337ZM60.6976 26.405C59.7216 26.5134 58.8521 26.3054 58.1151 25.8429C57.394 25.3904 56.8529 24.7285 56.4484 24.0031C55.6486 22.5688 55.2858 20.7129 55.1706 19.0629L57.1657 18.9235C57.2716 20.4399 57.5999 21.9616 58.1952 23.029C58.4881 23.5544 58.8206 23.9244 59.1782 24.1489C59.5199 24.3633 59.9344 24.4775 60.4768 24.4172L60.6976 26.405ZM52.9888 23.9019C53.7233 24.7031 54.787 25.1613 56.001 25.3648C57.2123 25.5679 58.4913 25.5022 59.5345 25.3295C60.0533 25.2436 60.4965 25.1341 60.8268 25.0274C61.2059 24.905 61.3125 24.8252 61.2766 24.8554C61.2598 24.8696 61.1762 24.9404 61.1047 25.075C61.0236 25.2277 60.9387 25.511 61.061 25.8328C61.1713 26.1232 61.3821 26.2581 61.4651 26.3029C61.5136 26.3292 61.553 26.3437 61.5754 26.3511C61.5986 26.3587 61.6137 26.362 61.6176 26.3628C61.6184 26.3629 61.5513 26.3517 61.3769 26.3548C61.2133 26.3578 60.9901 26.3725 60.6976 26.405L60.4768 24.4172C61.103 24.3477 61.6407 24.3259 62.0192 24.4035C62.1225 24.4247 62.2677 24.4633 62.4159 24.5434C62.5576 24.62 62.8047 24.7913 62.9305 25.1223C63.0682 25.4845 62.9776 25.8123 62.8712 26.0129C62.7743 26.1954 62.6455 26.3173 62.565 26.3851C62.2743 26.6299 61.8298 26.8052 61.4413 26.9307C61.0039 27.0719 60.463 27.203 59.8611 27.3026C58.6629 27.501 57.154 27.5861 55.6703 27.3373C54.1891 27.0889 52.6505 26.4924 51.5146 25.2536L52.9888 23.9019ZM52.8791 23.7765C52.9137 23.8181 52.9502 23.8599 52.9888 23.9019L51.5146 25.2536C51.4551 25.1887 51.3978 25.1231 51.3426 25.0569L52.8791 23.7765ZM44.5 26C47.136 26 49.5622 25.1144 51.5014 23.6238L52.7202 25.2096C50.4438 26.9593 47.592 28 44.5 28V26ZM14.5 26H44.5V28H14.5V26ZM3 14.5C3 20.8513 8.14872 26 14.5 26V28C7.04416 28 1 21.9558 1 14.5H3ZM14.5 3C8.14873 3 3 8.14873 3 14.5H1C1 7.04416 7.04416 1 14.5 1V3ZM44.5 3H14.5V1H44.5V3Z" fill="white" fill-opacity="0.5" mask="url(#path-1-inside-1_15_7)"/>
</g>
<path d="M19.9981 12.211H20.5861V18.546H19.9981V12.211ZM20.4251 14.78H21.5941V15.263H20.4251V14.78ZM18.3811 12.897H18.9481C18.9481 14.696 18.1221 16.32 16.0781 17.349L15.7561 16.901C17.5061 16.012 18.3811 14.661 18.3811 12.988V12.897ZM16.0501 12.897H18.6821V13.373H16.0501V12.897ZM23.7215 15.837H24.2955V17.524H23.7215V15.837ZM25.7515 15.837H26.3255V17.524H25.7515V15.837ZM22.1605 17.272H27.8935V17.755H22.1605V17.272ZM24.7225 12.96H25.2125V13.352C25.2125 14.654 23.9175 15.627 22.6715 15.893L22.4335 15.424C23.5255 15.235 24.7225 14.36 24.7225 13.352V12.96ZM24.8275 12.96H25.3175V13.352C25.3175 14.36 26.5215 15.221 27.6275 15.403L27.3965 15.865C26.1295 15.613 24.8275 14.654 24.8275 13.352V12.96ZM22.6295 12.771H27.4105V13.247H22.6295V12.771ZM32.877 12.211H33.465V18.546H32.877V12.211ZM33.304 14.78H34.473V15.263H33.304V14.78ZM31.26 12.897H31.827C31.827 14.696 31.001 16.32 28.957 17.349L28.635 16.901C30.385 16.012 31.26 14.661 31.26 12.988V12.897ZM28.929 12.897H31.561V13.373H28.929V12.897ZM36.6005 15.837H37.1745V17.524H36.6005V15.837ZM38.6305 15.837H39.2045V17.524H38.6305V15.837ZM35.0395 17.272H40.7725V17.755H35.0395V17.272ZM37.6015 12.96H38.0915V13.352C38.0915 14.654 36.7965 15.627 35.5505 15.893L35.3125 15.424C36.4045 15.235 37.6015 14.36 37.6015 13.352V12.96ZM37.7065 12.96H38.1965V13.352C38.1965 14.36 39.4005 15.221 40.5065 15.403L40.2755 15.865C39.0085 15.613 37.7065 14.654 37.7065 13.352V12.96ZM35.5085 12.771H40.2895V13.247H35.5085V12.771ZM42.6199 12.491H43.1309V16.887H42.6199V12.491ZM42.6199 17.251H43.1309V18.196H42.6199V17.251Z" fill="black"/>
<defs>
<filter id="filter0_d_15_7" x="0" y="0" width="68" height="33" filterUnits="userSpaceOnUse" color-interpolation-filters="sRGB">
<feFlood flood-opacity="0" result="BackgroundImageFix"/>
<feColorMatrix in="SourceAlpha" type="matrix" values="0 0 0 0 0 0 0 0 0 0 0 0 0 0 0 0 0 0 127 0" result="hardAlpha"/>
<feOffset dx="2" dy="2"/>
<feGaussianBlur stdDeviation="2"/>
<feComposite in2="hardAlpha" operator="out"/>
<feColorMatrix type="matrix" values="0 0 0 0 0 0 0 0 0 0 0 0 0 0 0 0 0 0 0.15 0"/>
<feBlend mode="normal" in2="BackgroundImageFix" result="effect1_dropShadow_15_7"/>
<feBlend mode="normal" in="SourceGraphic" in2="effect1_dropShadow_15_7" result="shape"/>
</filter>
<linearGradient id="paint0_linear_15_7" x1="1" y1="2" x2="1" y2="27" gradientUnits="userSpaceOnUse">
<stop stop-color="#D5DFF2"/>
<stop offset="1" stop-color="#E2E0E1"/>
</linearGradient>
</defs>
</svg>
