<svg width="149" height="33" viewBox="0 0 149 33" fill="none" xmlns="http://www.w3.org/2000/svg">
<g filter="url(#filter0_d_15_8)">
<mask id="path-1-inside-1_15_8" fill="white">
<path fill-rule="evenodd" clip-rule="evenodd" d="M19.5 2C12.5964 2 7 7.59644 7 14.5C7 16.0838 7.29456 17.5988 7.83187 18.9932C7.61069 22.1596 6.44968 25.7484 3.41276 25.4111C-1.58855 24.8555 8.00739 28.6577 11.7483 24.5778C11.7973 24.5243 11.8442 24.4706 11.8892 24.4167C13.997 26.0368 16.636 27 19.5 27H130.5C137.404 27 143 21.4036 143 14.5C143 7.59644 137.404 2 130.5 2H19.5Z"/>
</mask>
<path fill-rule="evenodd" clip-rule="evenodd" d="M19.5 2C12.5964 2 7 7.59644 7 14.5C7 16.0838 7.29456 17.5988 7.83187 18.9932C7.61069 22.1596 6.44968 25.7484 3.41276 25.4111C-1.58855 24.8555 8.00739 28.6577 11.7483 24.5778C11.7973 24.5243 11.8442 24.4706 11.8892 24.4167C13.997 26.0368 16.636 27 19.5 27H130.5C137.404 27 143 21.4036 143 14.5C143 7.59644 137.404 2 130.5 2H19.5Z" fill="url(#paint0_linear_15_8)"/>
<path d="M7.83187 18.9932L8.82944 19.0629L8.84494 18.8411L8.76499 18.6337L7.83187 18.9932ZM3.41276 25.4111L3.52317 24.4172L3.41276 25.4111ZM11.7483 24.5778L11.0112 23.9019L11.0112 23.9019L11.7483 24.5778ZM11.8892 24.4167L12.4986 23.6238L11.7364 23.038L11.1209 23.7765L11.8892 24.4167ZM8 14.5C8 8.14873 13.1487 3 19.5 3V1C12.0442 1 6 7.04416 6 14.5H8ZM8.76499 18.6337C8.27118 17.3521 8 15.9589 8 14.5H6C6 16.2087 6.31793 17.8455 6.89875 19.3528L8.76499 18.6337ZM3.30236 26.405C4.27843 26.5134 5.1479 26.3054 5.88491 25.8429C6.60603 25.3904 7.14707 24.7285 7.5516 24.0031C8.35141 22.5688 8.71418 20.7129 8.82944 19.0629L6.8343 18.9235C6.72838 20.4399 6.40005 21.9616 5.80483 23.029C5.51185 23.5544 5.17939 23.9244 4.82178 24.1489C4.48006 24.3633 4.06556 24.4775 3.52317 24.4172L3.30236 26.405ZM11.0112 23.9019C10.2767 24.7031 9.21295 25.1613 7.99898 25.3648C6.78768 25.5679 5.50874 25.5022 4.46554 25.3295C3.94666 25.2436 3.50346 25.1341 3.17325 25.0274C2.79411 24.905 2.68749 24.8252 2.7234 24.8554C2.74024 24.8696 2.82381 24.9404 2.89529 25.075C2.97639 25.2277 3.06131 25.511 2.93903 25.8328C2.82866 26.1232 2.61792 26.2581 2.53491 26.3029C2.48635 26.3292 2.44702 26.3437 2.42461 26.3511C2.40139 26.3587 2.38628 26.362 2.38237 26.3628C2.38159 26.3629 2.4487 26.3517 2.62308 26.3548C2.78666 26.3578 3.00988 26.3725 3.30236 26.405L3.52317 24.4172C2.89697 24.3477 2.3593 24.3259 1.98078 24.4035C1.87752 24.4247 1.73232 24.4633 1.58412 24.5434C1.44242 24.62 1.19526 24.7913 1.06949 25.1223C0.931814 25.4845 1.02236 25.8123 1.12885 26.0129C1.22573 26.1954 1.35446 26.3173 1.43499 26.3851C1.72566 26.6299 2.17019 26.8052 2.55868 26.9307C2.9961 27.0719 3.53702 27.203 4.13886 27.3026C5.33709 27.501 6.84597 27.5861 8.32974 27.3373C9.81086 27.0889 11.3495 26.4924 12.4854 25.2536L11.0112 23.9019ZM11.1209 23.7765C11.0863 23.8181 11.0498 23.8599 11.0112 23.9019L12.4854 25.2536C12.5449 25.1887 12.6022 25.1231 12.6574 25.0569L11.1209 23.7765ZM19.5 26C16.864 26 14.4378 25.1144 12.4986 23.6238L11.2798 25.2096C13.5562 26.9593 16.408 28 19.5 28V26ZM130.5 26H19.5V28H130.5V26ZM142 14.5C142 20.8513 136.851 26 130.5 26V28C137.956 28 144 21.9558 144 14.5H142ZM130.5 3C136.851 3 142 8.14873 142 14.5H144C144 7.04416 137.956 1 130.5 1V3ZM19.5 3H130.5V1H19.5V3Z" fill="white" fill-opacity="0.5" mask="url(#path-1-inside-1_15_8)"/>
</g>
<path d="M19.9628 12.82H20.4598V14.43H21.1948V12.82H21.6848V17.006H19.9628V12.82ZM20.4598 14.899V16.53H21.1948V14.899H20.4598ZM22.1818 12.82H22.6718V14.43H23.3928V12.82H23.8758V17.006H22.1818V12.82ZM22.6718 14.899V16.53H23.3928V14.899H22.6718ZM24.5408 12.218H25.1008V18.546H24.5408V12.218ZM30.8123 12.218H31.3933V18.546H30.8123V12.218ZM26.6123 12.834H27.1863V16.754H26.6123V12.834ZM26.6123 16.411H27.1303C28.0893 16.411 29.0903 16.341 30.1613 16.117L30.2313 16.614C29.1323 16.838 28.1313 16.915 27.1303 16.915H26.6123V16.411ZM36.9787 12.225H37.5597V16.971H36.9787V12.225ZM37.3777 14.297H38.4977V14.787H37.3777V14.297ZM32.6667 12.988H36.4047V13.457H32.6667V12.988ZM34.5357 13.807C35.4317 13.807 36.0477 14.276 36.0477 14.99C36.0477 15.697 35.4317 16.166 34.5357 16.166C33.6327 16.166 33.0167 15.697 33.0167 14.99C33.0167 14.276 33.6327 13.807 34.5357 13.807ZM34.5357 14.262C33.9617 14.262 33.5697 14.549 33.5697 14.99C33.5697 15.424 33.9617 15.711 34.5357 15.711C35.1027 15.711 35.4947 15.424 35.4947 14.99C35.4947 14.549 35.1027 14.262 34.5357 14.262ZM34.2417 12.218H34.8227V13.233H34.2417V12.218ZM33.6187 17.93H37.8467V18.406H33.6187V17.93ZM33.6187 16.593H34.1997V18.133H33.6187V16.593ZM41.7172 14.612H42.9072V15.095H41.7172V14.612ZM39.3232 16.551H39.7292C40.7022 16.551 41.2832 16.53 41.9832 16.39L42.0392 16.866C41.3182 17.006 40.7162 17.027 39.7292 17.027H39.3232V16.551ZM39.3232 12.981H41.6682V13.45H39.8762V16.712H39.3232V12.981ZM39.7082 14.689H41.3812V15.151H39.7082V14.689ZM43.9012 12.218H44.4612V18.546H43.9012V12.218ZM42.6272 12.365H43.1802V18.224H42.6272V12.365ZM51.8316 12.876H52.3916C52.3916 14.703 51.7476 16.397 49.4656 17.517L49.1506 17.062C51.1526 16.082 51.8316 14.668 51.8316 12.939V12.876ZM49.4936 12.876H52.1256V13.345H49.4936V12.876ZM51.7476 14.444V14.892L49.2766 15.123L49.1786 14.612L51.7476 14.444ZM53.6376 12.218H54.2186V18.546H53.6376V12.218ZM60.0701 12.225H60.6581V16.11H60.0701V12.225ZM55.7931 15.249H56.3041C57.4521 15.249 58.2991 15.214 59.3141 15.046L59.3771 15.522C58.3341 15.697 57.4801 15.725 56.3041 15.725H55.7931V15.249ZM55.7791 12.617H58.6491V14.367H56.3601V15.515H55.7931V13.912H58.0821V13.093H55.7791V12.617ZM58.5721 16.25C59.8881 16.25 60.7001 16.663 60.7001 17.391C60.7001 18.119 59.8881 18.539 58.5721 18.539C57.2491 18.539 56.4511 18.119 56.4511 17.391C56.4511 16.663 57.2491 16.25 58.5721 16.25ZM58.5721 16.712C57.6061 16.712 57.0251 16.957 57.0251 17.391C57.0251 17.825 57.6061 18.077 58.5721 18.077C59.5381 18.077 60.1191 17.825 60.1191 17.391C60.1191 16.957 59.5381 16.712 58.5721 16.712ZM68.6515 13.709H70.2475V14.192H68.6515V13.709ZM66.9925 12.603H67.4615V13.38C67.4615 14.605 66.7755 15.627 65.7185 16.054L65.4175 15.592C66.3555 15.242 66.9925 14.346 66.9925 13.38V12.603ZM67.1045 12.603H67.5735V13.401C67.5735 14.283 68.1895 15.116 69.1065 15.452L68.7915 15.9C67.7835 15.508 67.1045 14.528 67.1045 13.401V12.603ZM70.0305 12.225H70.6115V16.957H70.0305V12.225ZM66.5445 17.93H70.7655V18.406H66.5445V17.93ZM66.5445 16.432H67.1255V18.154H66.5445V16.432ZM74.412 15.207H74.986V16.18H74.412V15.207ZM71.843 14.885H77.562V15.354H71.843V14.885ZM72.585 12.428H76.82V14.353H72.585V12.428ZM76.253 12.89H73.159V13.891H76.253V12.89ZM72.536 15.97H76.834V17.391H73.124V18.161H72.55V16.971H76.26V16.418H72.536V15.97ZM72.55 18.021H77.023V18.476H72.55V18.021ZM84.3235 12.841H84.8275V13.107C84.8275 14.241 83.6235 15.074 82.3495 15.291L82.1255 14.829C83.2385 14.668 84.3235 13.94 84.3235 13.107V12.841ZM84.4705 12.841H84.9675V13.107C84.9675 13.94 86.0595 14.668 87.1655 14.829L86.9485 15.291C85.6675 15.074 84.4705 14.241 84.4705 13.107V12.841ZM84.3445 16.131H84.9185V18.546H84.3445V16.131ZM81.7895 15.823H87.5085V16.299H81.7895V15.823ZM82.3215 12.61H86.9555V13.079H82.3215V12.61ZM88.9989 14.115H93.2969V14.591H88.9989V14.115ZM88.2219 15.438H93.9619V15.914H88.2219V15.438ZM88.9989 12.449H89.5729V14.353H88.9989V12.449ZM88.9569 17.916H93.3319V18.392H88.9569V17.916ZM88.9569 16.544H89.5309V18.042H88.9569V16.544ZM102.788 12.218H103.369V18.546H102.788V12.218ZM101.311 14.752H103.047V15.235H101.311V14.752ZM100.758 12.897H101.332C101.332 14.703 100.583 16.299 98.4834 17.349L98.1614 16.894C100.002 15.991 100.758 14.647 100.758 12.995V12.897ZM98.4344 12.897H101.066V13.373H98.4344V12.897ZM109.795 12.701C110.712 12.701 111.37 13.562 111.37 14.906C111.37 16.257 110.712 17.118 109.795 17.118C108.871 17.118 108.22 16.257 108.22 14.906C108.22 13.562 108.871 12.701 109.795 12.701ZM109.795 13.226C109.186 13.226 108.773 13.884 108.773 14.906C108.773 15.935 109.186 16.607 109.795 16.607C110.404 16.607 110.817 15.935 110.817 14.906C110.817 13.884 110.404 13.226 109.795 13.226ZM112.742 12.211H113.316V18.553H112.742V12.211ZM111.181 14.626H112.994V15.102H111.181V14.626ZM118.166 12.351H118.705V18.231H118.166V12.351ZM118.481 14.794H119.65V15.27H118.481V14.794ZM114.729 16.418H114.981C115.226 16.418 115.639 16.411 116.129 16.292L116.178 16.775C115.653 16.901 115.247 16.901 114.981 16.901H114.729V16.418ZM114.729 13.009H116.08V13.485H115.268V16.691H114.729V13.009ZM116.353 16.418H116.619C116.955 16.418 117.396 16.404 117.879 16.271L117.935 16.754C117.417 16.894 116.983 16.901 116.619 16.901H116.353V16.418ZM116.353 13.009H117.746V13.485H116.885V16.67H116.353V13.009ZM119.447 12.218H120V18.546H119.447V12.218ZM122.387 15.473H122.961V17.37H122.387V15.473ZM124.725 15.473H125.306V17.37H124.725V15.473ZM120.987 17.258H126.72V17.741H120.987V17.258ZM123.843 12.617C125.18 12.617 126.139 13.254 126.139 14.248C126.139 15.235 125.18 15.872 123.843 15.872C122.499 15.872 121.54 15.235 121.54 14.248C121.54 13.254 122.499 12.617 123.843 12.617ZM123.843 13.079C122.828 13.079 122.1 13.541 122.1 14.248C122.1 14.948 122.828 15.41 123.843 15.41C124.858 15.41 125.579 14.948 125.579 14.248C125.579 13.541 124.858 13.079 123.843 13.079ZM128.364 15.515H128.791V15.081H129.645V14.654H130.058V13.429H129.645V12.995H128.014V13.429H127.601V14.297H127.09V13.352H127.524V12.918H127.951V12.491H129.708V12.918H130.135V13.352H130.562V14.724H130.135V15.158H129.708V15.592H128.868V16.887H128.364V15.515ZM128.364 17.251H129.295V18.196H128.364V17.251Z" fill="black"/>
<defs>
<filter id="filter0_d_15_8" x="0" y="0" width="149" height="33" filterUnits="userSpaceOnUse" color-interpolation-filters="sRGB">
<feFlood flood-opacity="0" result="BackgroundImageFix"/>
<feColorMatrix in="SourceAlpha" type="matrix" values="0 0 0 0 0 0 0 0 0 0 0 0 0 0 0 0 0 0 127 0" result="hardAlpha"/>
<feOffset dx="2" dy="2"/>
<feGaussianBlur stdDeviation="2"/>
<feComposite in2="hardAlpha" operator="out"/>
<feColorMatrix type="matrix" values="0 0 0 0 0 0 0 0 0 0 0 0 0 0 0 0 0 0 0.15 0"/>
<feBlend mode="normal" in2="BackgroundImageFix" result="effect1_dropShadow_15_8"/>
<feBlend mode="normal" in="SourceGraphic" in2="effect1_dropShadow_15_8" result="shape"/>
</filter>
<linearGradient id="paint0_linear_15_8" x1="63" y1="2" x2="63" y2="27" gradientUnits="userSpaceOnUse">
<stop stop-color="#D5DFF2"/>
<stop offset="1" stop-color="#E2E0E1"/>
</linearGradient>
</defs>
</svg>
