<svg width="66" height="155" viewBox="0 0 66 155" fill="none" xmlns="http://www.w3.org/2000/svg">
<mask id="path-1-inside-1_5_151" fill="white">
<path d="M0 7.5C0 3.35786 3.35786 0 7.5 0H57.5C61.6421 0 65 3.35786 65 7.5C65 11.6421 61.6421 15 57.5 15H7.5C3.35787 15 0 11.6421 0 7.5Z"/>
</mask>
<path d="M0 7.5C0 3.35786 3.35786 0 7.5 0H57.5C61.6421 0 65 3.35786 65 7.5C65 11.6421 61.6421 15 57.5 15H7.5C3.35787 15 0 11.6421 0 7.5Z" fill="url(#paint0_linear_5_151)"/>
<path d="M7.5 1H57.5V-1H7.5V1ZM57.5 14H7.5V16H57.5V14ZM7.5 14C3.91015 14 1 11.0899 1 7.5H-1C-1 12.1944 2.80558 16 7.5 16V14ZM64 7.5C64 11.0899 61.0899 14 57.5 14V16C62.1944 16 66 12.1944 66 7.5H64ZM57.5 1C61.0899 1 64 3.91015 64 7.5H66C66 2.80558 62.1944 -1 57.5 -1V1ZM7.5 -1C2.80558 -1 -1 2.80558 -1 7.5H1C1 3.91015 3.91015 1 7.5 1V-1Z" fill="white" fill-opacity="0.5" mask="url(#path-1-inside-1_5_151)"/>
<path d="M24.4687 5.038H24.9667V10.474H24.4687V5.038ZM20.8327 8.752H21.2827C22.1887 8.752 22.9987 8.716 23.9587 8.56L24.0127 8.968C23.0287 9.13 22.2127 9.166 21.2827 9.166H20.8327V8.752ZM20.8207 5.548H23.3287V7.486H21.3307V8.908H20.8327V7.078H22.8247V5.956H20.8207V5.548ZM26.0402 9.334H30.9542V9.748H26.0402V9.334ZM28.2362 5.776H28.6562V6.226C28.6562 7.336 27.5462 8.176 26.4782 8.398L26.2742 8.002C27.2102 7.84 28.2362 7.084 28.2362 6.226V5.776ZM28.3262 5.776H28.7462V6.226C28.7462 7.084 29.7782 7.828 30.7262 7.978L30.5282 8.38C29.4422 8.164 28.3262 7.336 28.3262 6.226V5.776ZM26.4422 5.578H30.5402V5.992H26.4422V5.578ZM32.1418 5.572H35.5858V5.98H32.1418V5.572ZM31.5538 9.322H36.4558V9.73H31.5538V9.322ZM35.3818 5.572H35.8678V6.088C35.8678 6.748 35.8678 7.492 35.6458 8.602L35.1478 8.542C35.3818 7.492 35.3818 6.73 35.3818 6.088V5.572ZM35.4898 6.874V7.252L32.0698 7.444L31.9918 7.012L35.4898 6.874ZM33.4618 7.918H33.9598V9.472H33.4618V7.918ZM41.0813 8.308H40.7153V7.936H40.3433V7.192H39.9653V5.644H40.3433V5.278H40.7153V4.906H42.2573V5.278H42.6293V5.644H42.9353V5.278H43.3073V4.906H44.8553V5.278H45.2213V5.644H45.5933V7.192H45.2213V7.936H44.8553V8.308H44.4833V8.68H44.1113V9.046H43.7393V9.418H43.3733V9.79H43.0013V10.168H42.5633V9.79H42.1973V9.418H41.8253V9.046H41.4533V8.68H41.0813V8.308ZM41.8913 8.614V8.986H42.2573V9.358H42.6293V9.724H42.9353V9.358H43.3073V8.986H43.6793V8.614H44.0453V8.242H44.4173V7.87H44.7893V7.132H45.1553V5.71H44.7893V5.338H43.3733V5.71H43.0013V6.082H42.5633V5.71H42.1973V5.338H40.7753V5.71H40.4093V7.132H40.7753V7.87H41.1473V8.242H41.5193V8.614H41.8913Z" fill="black"/>
<mask id="path-4-inside-2_5_151" fill="white">
<path d="M0 67.5C0 63.3579 3.35786 60 7.5 60H57.5C61.6421 60 65 63.3579 65 67.5C65 71.6421 61.6421 75 57.5 75H7.5C3.35787 75 0 71.6421 0 67.5Z"/>
</mask>
<path d="M0 67.5C0 63.3579 3.35786 60 7.5 60H57.5C61.6421 60 65 63.3579 65 67.5C65 71.6421 61.6421 75 57.5 75H7.5C3.35787 75 0 71.6421 0 67.5Z" fill="url(#paint1_linear_5_151)"/>
<path d="M7.5 61H57.5V59H7.5V61ZM57.5 74H7.5V76H57.5V74ZM7.5 74C3.91015 74 1 71.0899 1 67.5H-1C-1 72.1944 2.80558 76 7.5 76V74ZM64 67.5C64 71.0899 61.0899 74 57.5 74V76C62.1944 76 66 72.1944 66 67.5H64ZM57.5 61C61.0899 61 64 63.9101 64 67.5H66C66 62.8056 62.1944 59 57.5 59V61ZM7.5 59C2.80558 59 -1 62.8056 -1 67.5H1C1 63.9101 3.91015 61 7.5 61V59Z" fill="white" fill-opacity="0.5" mask="url(#path-4-inside-2_5_151)"/>
<path d="M26.3845 66.424H28.2385V66.82H26.3845V66.424ZM26.3845 65.236H28.2085V65.638H26.8825V66.574H26.3845V65.236ZM24.2365 65.236H26.0665V65.638H24.7345V66.574H24.2365V65.236ZM24.2365 66.424H24.5365C25.0645 66.424 25.5685 66.4 26.1385 66.274L26.1925 66.67C25.5985 66.796 25.0885 66.82 24.5365 66.82H24.2365V66.424ZM25.9825 66.76H26.4745V67.564H25.9825V66.76ZM23.7745 67.408H28.6765V67.816H23.7745V67.408ZM24.3685 68.254H28.0525V69.478H24.8725V70.132H24.3805V69.112H27.5605V68.638H24.3685V68.254ZM24.3805 70.018H28.2145V70.408H24.3805V70.018ZM31.862 65.926H33.392V66.334H31.862V65.926ZM31.862 67.036H33.392V67.45H31.862V67.036ZM29.564 65.374H30.056V66.238H31.526V65.374H32.012V67.93H29.564V65.374ZM30.056 66.64V67.528H31.526V66.64H30.056ZM33.26 65.044H33.758V68.326H33.26V65.044ZM31.976 68.434C33.092 68.434 33.782 68.812 33.782 69.448C33.782 70.09 33.092 70.456 31.976 70.456C30.854 70.456 30.164 70.09 30.164 69.448C30.164 68.812 30.854 68.434 31.976 68.434ZM31.976 68.83C31.16 68.83 30.662 69.052 30.662 69.448C30.662 69.838 31.16 70.066 31.976 70.066C32.792 70.066 33.29 69.838 33.29 69.448C33.29 69.052 32.792 68.83 31.976 68.83ZM38.8215 68.308H38.4555V67.936H38.0835V67.192H37.7055V65.644H38.0835V65.278H38.4555V64.906H39.9975V65.278H40.3695V65.644H40.6755V65.278H41.0475V64.906H42.5955V65.278H42.9615V65.644H43.3335V67.192H42.9615V67.936H42.5955V68.308H42.2235V68.68H41.8515V69.046H41.4795V69.418H41.1135V69.79H40.7415V70.168H40.3035V69.79H39.9375V69.418H39.5655V69.046H39.1935V68.68H38.8215V68.308ZM39.6315 68.614V68.986H39.9975V69.358H40.3695V69.724H40.6755V69.358H41.0475V68.986H41.4195V68.614H41.7855V68.242H42.1575V67.87H42.5295V67.132H42.8955V65.71H42.5295V65.338H41.1135V65.71H40.7415V66.082H40.3035V65.71H39.9375V65.338H38.5155V65.71H38.1495V67.132H38.5155V67.87H38.8875V68.242H39.2595V68.614H39.6315Z" fill="black"/>
<mask id="path-7-inside-3_5_151" fill="white">
<path d="M0 27.5C0 23.3579 3.35786 20 7.5 20H57.5C61.6421 20 65 23.3579 65 27.5C65 31.6421 61.6421 35 57.5 35H7.5C3.35787 35 0 31.6421 0 27.5Z"/>
</mask>
<path d="M0 27.5C0 23.3579 3.35786 20 7.5 20H57.5C61.6421 20 65 23.3579 65 27.5C65 31.6421 61.6421 35 57.5 35H7.5C3.35787 35 0 31.6421 0 27.5Z" fill="url(#paint2_linear_5_151)"/>
<path d="M7.5 21H57.5V19H7.5V21ZM57.5 34H7.5V36H57.5V34ZM7.5 34C3.91015 34 1 31.0899 1 27.5H-1C-1 32.1944 2.80558 36 7.5 36V34ZM64 27.5C64 31.0899 61.0899 34 57.5 34V36C62.1944 36 66 32.1944 66 27.5H64ZM57.5 21C61.0899 21 64 23.9101 64 27.5H66C66 22.8056 62.1944 19 57.5 19V21ZM7.5 19C2.80558 19 -1 22.8056 -1 27.5H1C1 23.9101 3.91015 21 7.5 21V19Z" fill="white" fill-opacity="0.5" mask="url(#path-7-inside-3_5_151)"/>
<path d="M19.9569 26.94H20.4489V27.954H19.9569V26.94ZM19.9509 25.128H20.3829V25.368C20.3829 26.346 19.3449 27.042 18.2409 27.222L18.0489 26.826C19.0209 26.694 19.9509 26.094 19.9509 25.368V25.128ZM20.0289 25.128H20.4549V25.368C20.4549 26.094 21.3909 26.694 22.3569 26.826L22.1709 27.222C21.0729 27.036 20.0289 26.346 20.0289 25.368V25.128ZM17.7549 27.738H22.6569V28.134H17.7549V27.738ZM20.2029 28.584C21.3669 28.584 22.0629 28.92 22.0629 29.52C22.0629 30.126 21.3669 30.456 20.2029 30.456C19.0389 30.456 18.3429 30.126 18.3429 29.52C18.3429 28.92 19.0389 28.584 20.2029 28.584ZM20.2029 28.968C19.3509 28.968 18.8469 29.166 18.8469 29.52C18.8469 29.874 19.3509 30.072 20.2029 30.072C21.0609 30.072 21.5589 29.874 21.5589 29.52C21.5589 29.166 21.0609 28.968 20.2029 28.968ZM24.4865 26.88H24.9785V27.906H24.4865V26.88ZM26.4785 26.88H26.9705V27.906H26.4785V26.88ZM23.2745 27.726H28.1765V28.128H23.2745V27.726ZM25.7225 28.536C26.8865 28.536 27.5825 28.878 27.5825 29.496C27.5825 30.114 26.8865 30.462 25.7225 30.462C24.5585 30.462 23.8625 30.114 23.8625 29.496C23.8625 28.878 24.5585 28.536 25.7225 28.536ZM25.7225 28.92C24.8765 28.92 24.3665 29.13 24.3665 29.496C24.3665 29.868 24.8765 30.072 25.7225 30.072C26.5745 30.072 27.0785 29.868 27.0785 29.496C27.0785 29.13 26.5745 28.92 25.7225 28.92ZM25.7285 25.14C26.9045 25.14 27.6365 25.518 27.6365 26.154C27.6365 26.784 26.9045 27.156 25.7285 27.156C24.5465 27.156 23.8205 26.784 23.8205 26.154C23.8205 25.518 24.5465 25.14 25.7285 25.14ZM25.7285 25.53C24.8645 25.53 24.3305 25.758 24.3305 26.154C24.3305 26.544 24.8645 26.772 25.7285 26.772C26.5925 26.772 27.1265 26.544 27.1265 26.154C27.1265 25.758 26.5925 25.53 25.7285 25.53ZM31.002 26.682H31.494V27.654H31.002V26.682ZM29.448 26.484H33.12V26.886H29.448V26.484ZM29.448 25.254H33.06V25.656H29.94V26.7H29.448V25.254ZM28.794 27.396H33.696V27.798H28.794V27.396ZM29.388 28.254H33.072V29.478H29.892V30.132H29.4V29.112H32.58V28.638H29.388V28.254ZM29.4 30.018H33.234V30.408H29.4V30.018ZM38.2555 25.038H38.7535V30.474H38.2555V25.038ZM35.8915 25.458C36.6955 25.458 37.2715 26.196 37.2715 27.348C37.2715 28.506 36.6955 29.244 35.8915 29.244C35.0935 29.244 34.5175 28.506 34.5175 27.348C34.5175 26.196 35.0935 25.458 35.8915 25.458ZM35.8915 25.908C35.3635 25.908 34.9915 26.472 34.9915 27.348C34.9915 28.23 35.3635 28.806 35.8915 28.806C36.4255 28.806 36.7915 28.23 36.7915 27.348C36.7915 26.472 36.4255 25.908 35.8915 25.908ZM43.8411 28.308H43.4751V27.936H43.1031V27.192H42.7251V25.644H43.1031V25.278H43.4751V24.906H45.0171V25.278H45.3891V25.644H45.6951V25.278H46.0671V24.906H47.6151V25.278H47.9811V25.644H48.3531V27.192H47.9811V27.936H47.6151V28.308H47.2431V28.68H46.8711V29.046H46.4991V29.418H46.1331V29.79H45.7611V30.168H45.3231V29.79H44.9571V29.418H44.5851V29.046H44.2131V28.68H43.8411V28.308ZM44.6511 28.614V28.986H45.0171V29.358H45.3891V29.724H45.6951V29.358H46.0671V28.986H46.4391V28.614H46.8051V28.242H47.1771V27.87H47.5491V27.132H47.9151V25.71H47.5491V25.338H46.1331V25.71H45.7611V26.082H45.3231V25.71H44.9571V25.338H43.5351V25.71H43.1691V27.132H43.5351V27.87H43.9071V28.242H44.2791V28.614H44.6511Z" fill="black"/>
<mask id="path-10-inside-4_5_151" fill="white">
<path d="M0 87.5C0 83.3579 3.35786 80 7.5 80H57.5C61.6421 80 65 83.3579 65 87.5C65 91.6421 61.6421 95 57.5 95H7.5C3.35787 95 0 91.6421 0 87.5Z"/>
</mask>
<path d="M0 87.5C0 83.3579 3.35786 80 7.5 80H57.5C61.6421 80 65 83.3579 65 87.5C65 91.6421 61.6421 95 57.5 95H7.5C3.35787 95 0 91.6421 0 87.5Z" fill="url(#paint3_linear_5_151)"/>
<path d="M7.5 81H57.5V79H7.5V81ZM57.5 94H7.5V96H57.5V94ZM7.5 94C3.91015 94 1 91.0899 1 87.5H-1C-1 92.1944 2.80558 96 7.5 96V94ZM64 87.5C64 91.0899 61.0899 94 57.5 94V96C62.1944 96 66 92.1944 66 87.5H64ZM57.5 81C61.0899 81 64 83.9101 64 87.5H66C66 82.8056 62.1944 79 57.5 79V81ZM7.5 79C2.80558 79 -1 82.8056 -1 87.5H1C1 83.9101 3.91015 81 7.5 81V79Z" fill="white" fill-opacity="0.5" mask="url(#path-10-inside-4_5_151)"/>
<path d="M24.4807 85.044H24.9787V88.254H24.4807V85.044ZM23.1007 86.412H24.6007V86.82H23.1007V86.412ZM20.7667 85.452H23.2447V87.858H20.7667V85.452ZM22.7527 85.854H21.2527V87.456H22.7527V85.854ZM23.1967 88.416C24.3127 88.416 25.0027 88.794 25.0027 89.442C25.0027 90.084 24.3127 90.462 23.1967 90.462C22.0747 90.462 21.3847 90.084 21.3847 89.442C21.3847 88.794 22.0747 88.416 23.1967 88.416ZM23.1967 88.812C22.3807 88.812 21.8827 89.04 21.8827 89.442C21.8827 89.838 22.3807 90.072 23.1967 90.072C24.0127 90.072 24.5107 89.838 24.5107 89.442C24.5107 89.04 24.0127 88.812 23.1967 88.812ZM26.0342 87.96H30.9542V88.362H26.0342V87.96ZM26.6582 85.2H30.3182V86.496H27.1622V87.222H26.6702V86.13H29.8322V85.59H26.6582V85.2ZM26.6702 87.036H30.4382V87.432H26.6702V87.036ZM28.4822 88.716C29.6702 88.716 30.3602 89.022 30.3602 89.592C30.3602 90.162 29.6702 90.462 28.4822 90.462C27.2942 90.462 26.6102 90.162 26.6102 89.592C26.6102 89.022 27.2942 88.716 28.4822 88.716ZM28.4822 89.088C27.6062 89.088 27.1142 89.268 27.1142 89.592C27.1142 89.91 27.6062 90.09 28.4822 90.09C29.3582 90.09 29.8562 89.91 29.8562 89.592C29.8562 89.268 29.3582 89.088 28.4822 89.088ZM27.4202 87.24H27.9122V88.224H27.4202V87.24ZM29.0942 87.24H29.5862V88.224H29.0942V87.24ZM35.4958 85.038H35.9938V90.474H35.4958V85.038ZM33.1318 85.458C33.9358 85.458 34.5118 86.196 34.5118 87.348C34.5118 88.506 33.9358 89.244 33.1318 89.244C32.3338 89.244 31.7578 88.506 31.7578 87.348C31.7578 86.196 32.3338 85.458 33.1318 85.458ZM33.1318 85.908C32.6038 85.908 32.2318 86.472 32.2318 87.348C32.2318 88.23 32.6038 88.806 33.1318 88.806C33.6658 88.806 34.0318 88.23 34.0318 87.348C34.0318 86.472 33.6658 85.908 33.1318 85.908ZM41.0813 88.308H40.7153V87.936H40.3433V87.192H39.9653V85.644H40.3433V85.278H40.7153V84.906H42.2573V85.278H42.6293V85.644H42.9353V85.278H43.3073V84.906H44.8553V85.278H45.2213V85.644H45.5933V87.192H45.2213V87.936H44.8553V88.308H44.4833V88.68H44.1113V89.046H43.7393V89.418H43.3733V89.79H43.0013V90.168H42.5633V89.79H42.1973V89.418H41.8253V89.046H41.4533V88.68H41.0813V88.308ZM41.8913 88.614V88.986H42.2573V89.358H42.6293V89.724H42.9353V89.358H43.3073V88.986H43.6793V88.614H44.0453V88.242H44.4173V87.87H44.7893V87.132H45.1553V85.71H44.7893V85.338H43.3733V85.71H43.0013V86.082H42.5633V85.71H42.1973V85.338H40.7753V85.71H40.4093V87.132H40.7753V87.87H41.1473V88.242H41.5193V88.614H41.8913Z" fill="black"/>
<mask id="path-13-inside-5_5_151" fill="white">
<path d="M1 127.5C1 123.358 4.35786 120 8.5 120H58.5C62.6421 120 66 123.358 66 127.5C66 131.642 62.6421 135 58.5 135H8.5C4.35787 135 1 131.642 1 127.5Z"/>
</mask>
<path d="M1 127.5C1 123.358 4.35786 120 8.5 120H58.5C62.6421 120 66 123.358 66 127.5C66 131.642 62.6421 135 58.5 135H8.5C4.35787 135 1 131.642 1 127.5Z" fill="url(#paint4_linear_5_151)"/>
<path d="M8.5 121H58.5V119H8.5V121ZM58.5 134H8.5V136H58.5V134ZM8.5 134C4.91015 134 2 131.09 2 127.5H0C0 132.194 3.80558 136 8.5 136V134ZM65 127.5C65 131.09 62.0899 134 58.5 134V136C63.1944 136 67 132.194 67 127.5H65ZM58.5 121C62.0899 121 65 123.91 65 127.5H67C67 122.806 63.1944 119 58.5 119V121ZM8.5 119C3.80558 119 0 122.806 0 127.5H2C2 123.91 4.91015 121 8.5 121V119Z" fill="white" fill-opacity="0.5" mask="url(#path-13-inside-5_5_151)"/>
<path d="M21.5147 128.254H26.4347V128.662H21.5147V128.254ZM23.7107 128.446H24.2027V130.468H23.7107V128.446ZM22.1327 125.26H22.6307V126.004H25.3127V125.26H25.8047V127.606H22.1327V125.26ZM22.6307 126.406V127.204H25.3127V126.406H22.6307ZM30.9582 125.044H31.4562V130.468H30.9582V125.044ZM27.1362 129.406L27.0702 128.986C28.0962 128.98 29.4462 128.98 30.6162 128.824L30.6522 129.196C29.4402 129.394 28.1382 129.412 27.1362 129.406ZM27.1842 125.77H30.4782V126.178H27.1842V125.77ZM28.8282 126.472C29.5962 126.472 30.1302 126.88 30.1302 127.492C30.1302 128.104 29.5962 128.512 28.8282 128.512C28.0662 128.512 27.5382 128.104 27.5382 127.492C27.5382 126.88 28.0662 126.472 28.8282 126.472ZM28.8282 126.868C28.3422 126.868 28.0062 127.114 28.0062 127.492C28.0062 127.87 28.3422 128.128 28.8282 128.128C29.3202 128.128 29.6562 127.87 29.6562 127.492C29.6562 127.114 29.3202 126.868 28.8282 126.868ZM28.5822 125.098H29.0802V126.028H28.5822V125.098ZM34.7318 125.578H35.1638V125.806C35.1638 126.778 34.1318 127.492 33.0398 127.678L32.8478 127.282C33.8018 127.144 34.7318 126.52 34.7318 125.806V125.578ZM34.8578 125.578H35.2838V125.806C35.2838 126.52 36.2198 127.144 37.1678 127.282L36.9818 127.678C35.8838 127.492 34.8578 126.778 34.8578 125.806V125.578ZM34.7498 128.398H35.2418V130.468H34.7498V128.398ZM32.5598 128.134H37.4618V128.542H32.5598V128.134ZM33.0158 125.38H36.9878V125.782H33.0158V125.38ZM42.0813 128.308H41.7153V127.936H41.3433V127.192H40.9653V125.644H41.3433V125.278H41.7153V124.906H43.2573V125.278H43.6293V125.644H43.9353V125.278H44.3073V124.906H45.8553V125.278H46.2213V125.644H46.5933V127.192H46.2213V127.936H45.8553V128.308H45.4833V128.68H45.1113V129.046H44.7393V129.418H44.3733V129.79H44.0013V130.168H43.5633V129.79H43.1973V129.418H42.8253V129.046H42.4533V128.68H42.0813V128.308ZM42.8913 128.614V128.986H43.2573V129.358H43.6293V129.724H43.9353V129.358H44.3073V128.986H44.6793V128.614H45.0453V128.242H45.4173V127.87H45.7893V127.132H46.1553V125.71H45.7893V125.338H44.3733V125.71H44.0013V126.082H43.5633V125.71H43.1973V125.338H41.7753V125.71H41.4093V127.132H41.7753V127.87H42.1473V128.242H42.5193V128.614H42.8913Z" fill="black"/>
<mask id="path-16-inside-6_5_151" fill="white">
<path d="M0 47.5C0 43.3579 3.35786 40 7.5 40H57.5C61.6421 40 65 43.3579 65 47.5C65 51.6421 61.6421 55 57.5 55H7.5C3.35787 55 0 51.6421 0 47.5Z"/>
</mask>
<path d="M0 47.5C0 43.3579 3.35786 40 7.5 40H57.5C61.6421 40 65 43.3579 65 47.5C65 51.6421 61.6421 55 57.5 55H7.5C3.35787 55 0 51.6421 0 47.5Z" fill="url(#paint5_linear_5_151)"/>
<path d="M7.5 41H57.5V39H7.5V41ZM57.5 54H7.5V56H57.5V54ZM7.5 54C3.91015 54 1 51.0899 1 47.5H-1C-1 52.1944 2.80558 56 7.5 56V54ZM64 47.5C64 51.0899 61.0899 54 57.5 54V56C62.1944 56 66 52.1944 66 47.5H64ZM57.5 41C61.0899 41 64 43.9101 64 47.5H66C66 42.8056 62.1944 39 57.5 39V41ZM7.5 39C2.80558 39 -1 42.8056 -1 47.5H1C1 43.9101 3.91015 41 7.5 41V39Z" fill="white" fill-opacity="0.5" mask="url(#path-16-inside-6_5_151)"/>
<path d="M20.5147 48.152H25.4347V48.56H20.5147V48.152ZM22.7107 48.404H23.2027V50.468H22.7107V48.404ZM22.9627 45.26C24.0967 45.26 24.8587 45.722 24.8587 46.448C24.8587 47.174 24.0967 47.636 22.9627 47.636C21.8347 47.636 21.0667 47.174 21.0667 46.448C21.0667 45.722 21.8347 45.26 22.9627 45.26ZM22.9627 45.662C22.1347 45.662 21.5707 45.968 21.5707 46.448C21.5707 46.928 22.1347 47.234 22.9627 47.234C23.7907 47.234 24.3487 46.928 24.3487 46.448C24.3487 45.968 23.7907 45.662 22.9627 45.662ZM26.2742 47.642H26.7002C27.6842 47.642 28.3862 47.612 29.2322 47.468L29.2742 47.876C28.4162 48.026 27.7022 48.056 26.7002 48.056H26.2742V47.642ZM26.2622 45.362H28.7042V46.868H26.7602V47.846H26.2742V46.484H28.2122V45.77H26.2622V45.362ZM29.7482 45.05H30.2462V48.344H29.7482V45.05ZM30.0962 46.43H31.0502V46.85H30.0962V46.43ZM26.7242 48.626H30.2462V50.468H29.7482V49.034H26.7242V48.626ZM32.3578 48.47H35.7658V50.396H32.3578V48.47ZM35.2798 48.866H32.8438V49.994H35.2798V48.866ZM35.2678 45.044H35.7658V48.17H35.2678V45.044ZM35.6278 46.334H36.5698V46.748H35.6278V46.334ZM31.7818 45.326H32.2738V46.142H33.8038V45.326H34.2898V47.828H31.7818V45.326ZM32.2738 46.538V47.426H33.8038V46.538H32.2738ZM41.0813 48.308H40.7153V47.936H40.3433V47.192H39.9653V45.644H40.3433V45.278H40.7153V44.906H42.2573V45.278H42.6293V45.644H42.9353V45.278H43.3073V44.906H44.8553V45.278H45.2213V45.644H45.5933V47.192H45.2213V47.936H44.8553V48.308H44.4833V48.68H44.1113V49.046H43.7393V49.418H43.3733V49.79H43.0013V50.168H42.5633V49.79H42.1973V49.418H41.8253V49.046H41.4533V48.68H41.0813V48.308ZM41.8913 48.614V48.986H42.2573V49.358H42.6293V49.724H42.9353V49.358H43.3073V48.986H43.6793V48.614H44.0453V48.242H44.4173V47.87H44.7893V47.132H45.1553V45.71H44.7893V45.338H43.3733V45.71H43.0013V46.082H42.5633V45.71H42.1973V45.338H40.7753V45.71H40.4093V47.132H40.7753V47.87H41.1473V48.242H41.5193V48.614H41.8913Z" fill="black"/>
<mask id="path-19-inside-7_5_151" fill="white">
<path d="M0 107.5C0 103.358 3.35786 100 7.5 100H57.5C61.6421 100 65 103.358 65 107.5C65 111.642 61.6421 115 57.5 115H7.5C3.35787 115 0 111.642 0 107.5Z"/>
</mask>
<path d="M0 107.5C0 103.358 3.35786 100 7.5 100H57.5C61.6421 100 65 103.358 65 107.5C65 111.642 61.6421 115 57.5 115H7.5C3.35787 115 0 111.642 0 107.5Z" fill="url(#paint6_linear_5_151)"/>
<path d="M7.5 101H57.5V99H7.5V101ZM57.5 114H7.5V116H57.5V114ZM7.5 114C3.91015 114 1 111.09 1 107.5H-1C-1 112.194 2.80558 116 7.5 116V114ZM64 107.5C64 111.09 61.0899 114 57.5 114V116C62.1944 116 66 112.194 66 107.5H64ZM57.5 101C61.0899 101 64 103.91 64 107.5H66C66 102.806 62.1944 99 57.5 99V101ZM7.5 99C2.80558 99 -1 102.806 -1 107.5H1C1 103.91 3.91015 101 7.5 101V99Z" fill="white" fill-opacity="0.5" mask="url(#path-19-inside-7_5_151)"/>
<path d="M20.5147 108.254H25.4347V108.662H20.5147V108.254ZM22.7107 108.446H23.2027V110.468H22.7107V108.446ZM21.1327 105.26H21.6307V106.004H24.3127V105.26H24.8047V107.606H21.1327V105.26ZM21.6307 106.406V107.204H24.3127V106.406H21.6307ZM29.9582 105.044H30.4562V110.468H29.9582V105.044ZM26.1362 109.406L26.0702 108.986C27.0962 108.98 28.4462 108.98 29.6162 108.824L29.6522 109.196C28.4402 109.394 27.1382 109.412 26.1362 109.406ZM26.1842 105.77H29.4782V106.178H26.1842V105.77ZM27.8282 106.472C28.5962 106.472 29.1302 106.88 29.1302 107.492C29.1302 108.104 28.5962 108.512 27.8282 108.512C27.0662 108.512 26.5382 108.104 26.5382 107.492C26.5382 106.88 27.0662 106.472 27.8282 106.472ZM27.8282 106.868C27.3422 106.868 27.0062 107.114 27.0062 107.492C27.0062 107.87 27.3422 108.128 27.8282 108.128C28.3202 108.128 28.6562 107.87 28.6562 107.492C28.6562 107.114 28.3202 106.868 27.8282 106.868ZM27.5822 105.098H28.0802V106.028H27.5822V105.098ZM33.7318 105.578H34.1638V105.806C34.1638 106.778 33.1318 107.492 32.0398 107.678L31.8478 107.282C32.8018 107.144 33.7318 106.52 33.7318 105.806V105.578ZM33.8578 105.578H34.2838V105.806C34.2838 106.52 35.2198 107.144 36.1678 107.282L35.9818 107.678C34.8838 107.492 33.8578 106.778 33.8578 105.806V105.578ZM33.7498 108.398H34.2418V110.468H33.7498V108.398ZM31.5598 108.134H36.4618V108.542H31.5598V108.134ZM32.0158 105.38H35.9878V105.782H32.0158V105.38ZM41.0813 108.308H40.7153V107.936H40.3433V107.192H39.9653V105.644H40.3433V105.278H40.7153V104.906H42.2573V105.278H42.6293V105.644H42.9353V105.278H43.3073V104.906H44.8553V105.278H45.2213V105.644H45.5933V107.192H45.2213V107.936H44.8553V108.308H44.4833V108.68H44.1113V109.046H43.7393V109.418H43.3733V109.79H43.0013V110.168H42.5633V109.79H42.1973V109.418H41.8253V109.046H41.4533V108.68H41.0813V108.308ZM41.8913 108.614V108.986H42.2573V109.358H42.6293V109.724H42.9353V109.358H43.3073V108.986H43.6793V108.614H44.0453V108.242H44.4173V107.87H44.7893V107.132H45.1553V105.71H44.7893V105.338H43.3733V105.71H43.0013V106.082H42.5633V105.71H42.1973V105.338H40.7753V105.71H40.4093V107.132H40.7753V107.87H41.1473V108.242H41.5193V108.614H41.8913Z" fill="black"/>
<mask id="path-22-inside-8_5_151" fill="white">
<path d="M1 147.5C1 143.358 4.35786 140 8.5 140H58.5C62.6421 140 66 143.358 66 147.5C66 151.642 62.6421 155 58.5 155H8.5C4.35787 155 1 151.642 1 147.5Z"/>
</mask>
<path d="M1 147.5C1 143.358 4.35786 140 8.5 140H58.5C62.6421 140 66 143.358 66 147.5C66 151.642 62.6421 155 58.5 155H8.5C4.35787 155 1 151.642 1 147.5Z" fill="url(#paint7_linear_5_151)"/>
<path d="M8.5 141H58.5V139H8.5V141ZM58.5 154H8.5V156H58.5V154ZM8.5 154C4.91015 154 2 151.09 2 147.5H0C0 152.194 3.80558 156 8.5 156V154ZM65 147.5C65 151.09 62.0899 154 58.5 154V156C63.1944 156 67 152.194 67 147.5H65ZM58.5 141C62.0899 141 65 143.91 65 147.5H67C67 142.806 63.1944 139 58.5 139V141ZM8.5 139C3.80558 139 0 142.806 0 147.5H2C2 143.91 4.91015 141 8.5 141V139Z" fill="white" fill-opacity="0.5" mask="url(#path-22-inside-8_5_151)"/>
<path d="M21.5147 148.254H26.4347V148.662H21.5147V148.254ZM23.7107 148.446H24.2027V150.468H23.7107V148.446ZM22.1327 145.26H22.6307V146.004H25.3127V145.26H25.8047V147.606H22.1327V145.26ZM22.6307 146.406V147.204H25.3127V146.406H22.6307ZM30.9582 145.044H31.4562V150.468H30.9582V145.044ZM27.1362 149.406L27.0702 148.986C28.0962 148.98 29.4462 148.98 30.6162 148.824L30.6522 149.196C29.4402 149.394 28.1382 149.412 27.1362 149.406ZM27.1842 145.77H30.4782V146.178H27.1842V145.77ZM28.8282 146.472C29.5962 146.472 30.1302 146.88 30.1302 147.492C30.1302 148.104 29.5962 148.512 28.8282 148.512C28.0662 148.512 27.5382 148.104 27.5382 147.492C27.5382 146.88 28.0662 146.472 28.8282 146.472ZM28.8282 146.868C28.3422 146.868 28.0062 147.114 28.0062 147.492C28.0062 147.87 28.3422 148.128 28.8282 148.128C29.3202 148.128 29.6562 147.87 29.6562 147.492C29.6562 147.114 29.3202 146.868 28.8282 146.868ZM28.5822 145.098H29.0802V146.028H28.5822V145.098ZM34.7318 145.578H35.1638V145.806C35.1638 146.778 34.1318 147.492 33.0398 147.678L32.8478 147.282C33.8018 147.144 34.7318 146.52 34.7318 145.806V145.578ZM34.8578 145.578H35.2838V145.806C35.2838 146.52 36.2198 147.144 37.1678 147.282L36.9818 147.678C35.8838 147.492 34.8578 146.778 34.8578 145.806V145.578ZM34.7498 148.398H35.2418V150.468H34.7498V148.398ZM32.5598 148.134H37.4618V148.542H32.5598V148.134ZM33.0158 145.38H36.9878V145.782H33.0158V145.38ZM42.0813 148.308H41.7153V147.936H41.3433V147.192H40.9653V145.644H41.3433V145.278H41.7153V144.906H43.2573V145.278H43.6293V145.644H43.9353V145.278H44.3073V144.906H45.8553V145.278H46.2213V145.644H46.5933V147.192H46.2213V147.936H45.8553V148.308H45.4833V148.68H45.1113V149.046H44.7393V149.418H44.3733V149.79H44.0013V150.168H43.5633V149.79H43.1973V149.418H42.8253V149.046H42.4533V148.68H42.0813V148.308ZM42.8913 148.614V148.986H43.2573V149.358H43.6293V149.724H43.9353V149.358H44.3073V148.986H44.6793V148.614H45.0453V148.242H45.4173V147.87H45.7893V147.132H46.1553V145.71H45.7893V145.338H44.3733V145.71H44.0013V146.082H43.5633V145.71H43.1973V145.338H41.7753V145.71H41.4093V147.132H41.7753V147.87H42.1473V148.242H42.5193V148.614H42.8913Z" fill="black"/>
<defs>
<linearGradient id="paint0_linear_5_151" x1="-164.98" y1="21.6" x2="-164.98" y2="36.6" gradientUnits="userSpaceOnUse">
<stop stop-color="#D5DFF2"/>
<stop offset="1" stop-color="#E2E0E1"/>
</linearGradient>
<linearGradient id="paint1_linear_5_151" x1="-164.98" y1="81.6" x2="-164.98" y2="96.6" gradientUnits="userSpaceOnUse">
<stop stop-color="#D5DFF2"/>
<stop offset="1" stop-color="#E2E0E1"/>
</linearGradient>
<linearGradient id="paint2_linear_5_151" x1="-164.98" y1="41.6" x2="-164.98" y2="56.6" gradientUnits="userSpaceOnUse">
<stop stop-color="#D5DFF2"/>
<stop offset="1" stop-color="#E2E0E1"/>
</linearGradient>
<linearGradient id="paint3_linear_5_151" x1="-164.98" y1="101.6" x2="-164.98" y2="116.6" gradientUnits="userSpaceOnUse">
<stop stop-color="#D5DFF2"/>
<stop offset="1" stop-color="#E2E0E1"/>
</linearGradient>
<linearGradient id="paint4_linear_5_151" x1="-163.98" y1="141.6" x2="-163.98" y2="156.6" gradientUnits="userSpaceOnUse">
<stop stop-color="#D5DFF2"/>
<stop offset="1" stop-color="#E2E0E1"/>
</linearGradient>
<linearGradient id="paint5_linear_5_151" x1="-164.98" y1="61.6" x2="-164.98" y2="76.6" gradientUnits="userSpaceOnUse">
<stop stop-color="#D5DFF2"/>
<stop offset="1" stop-color="#E2E0E1"/>
</linearGradient>
<linearGradient id="paint6_linear_5_151" x1="-164.98" y1="121.6" x2="-164.98" y2="136.6" gradientUnits="userSpaceOnUse">
<stop stop-color="#D5DFF2"/>
<stop offset="1" stop-color="#E2E0E1"/>
</linearGradient>
<linearGradient id="paint7_linear_5_151" x1="-163.98" y1="161.6" x2="-163.98" y2="176.6" gradientUnits="userSpaceOnUse">
<stop stop-color="#D5DFF2"/>
<stop offset="1" stop-color="#E2E0E1"/>
</linearGradient>
</defs>
</svg>
