<svg width="45" height="45" viewBox="0 0 45 45" fill="none" xmlns="http://www.w3.org/2000/svg">
<g opacity="0.77">
<g filter="url(#filter0_i_2052_30)">
<rect width="45" height="45" rx="22.5" fill="url(#paint0_linear_2052_30)"/>
</g>
<rect x="1" y="1" width="43" height="43" rx="21.5" stroke="#789DED" stroke-width="2"/>
</g>
<g filter="url(#filter1_i_2052_30)">
<path d="M31.3225 20.0725L22.25 11L11 22.25H13.5V31C13.5 31.663 13.7634 32.2989 14.2322 32.7678C14.7011 33.2366 15.337 33.5 16 33.5H21" stroke="#D5DFF2" stroke-width="3" stroke-linecap="round" stroke-linejoin="round"/>
<path d="M18.5 33.5V26C18.5 25.337 18.7634 24.7011 19.2322 24.2322C19.7011 23.7634 20.337 23.5 21 23.5H22.875M29.5 33.2712L26.785 34.6937C26.7044 34.7357 26.6138 34.7544 26.5232 34.7478C26.4326 34.7412 26.3456 34.7096 26.272 34.6564C26.1983 34.6032 26.1409 34.5307 26.1061 34.4468C26.0713 34.3628 26.0606 34.2709 26.075 34.1812L26.5938 31.1675L24.3975 29.0337C24.3319 28.9704 24.2855 28.8898 24.2636 28.8014C24.2416 28.7129 24.2449 28.62 24.2732 28.5333C24.3015 28.4466 24.3536 28.3696 24.4235 28.3112C24.4935 28.2527 24.5784 28.215 24.6688 28.2025L27.7038 27.7625L29.0612 25.0212C29.1018 24.9396 29.1644 24.8709 29.2419 24.8229C29.3194 24.7749 29.4088 24.7494 29.5 24.7494C29.5912 24.7494 29.6806 24.7749 29.7581 24.8229C29.8356 24.8709 29.8982 24.9396 29.9387 25.0212L31.2962 27.7625L34.3313 28.2025C34.4213 28.2155 34.5059 28.2533 34.5756 28.3119C34.6452 28.3704 34.6971 28.4473 34.7253 28.5338C34.7535 28.6203 34.757 28.713 34.7353 28.8013C34.7136 28.8897 34.6676 28.9702 34.6025 29.0337L32.4062 31.1675L32.9237 34.18C32.9393 34.2698 32.9293 34.3622 32.895 34.4467C32.8606 34.5311 32.8033 34.6043 32.7295 34.6578C32.6557 34.7113 32.5683 34.743 32.4774 34.7494C32.3865 34.7557 32.2955 34.7365 32.215 34.6937L29.5 33.2712Z" stroke="#D5DFF2" stroke-width="3" stroke-linecap="round" stroke-linejoin="round"/>
</g>
<defs>
<filter id="filter0_i_2052_30" x="0" y="0" width="45" height="49" filterUnits="userSpaceOnUse" color-interpolation-filters="sRGB">
<feFlood flood-opacity="0" result="BackgroundImageFix"/>
<feBlend mode="normal" in="SourceGraphic" in2="BackgroundImageFix" result="shape"/>
<feColorMatrix in="SourceAlpha" type="matrix" values="0 0 0 0 0 0 0 0 0 0 0 0 0 0 0 0 0 0 127 0" result="hardAlpha"/>
<feOffset dy="4"/>
<feGaussianBlur stdDeviation="2"/>
<feComposite in2="hardAlpha" operator="arithmetic" k2="-1" k3="1"/>
<feColorMatrix type="matrix" values="0 0 0 0 0 0 0 0 0 0 0 0 0 0 0 0 0 0 0.25 0"/>
<feBlend mode="normal" in2="shape" result="effect1_innerShadow_2052_30"/>
</filter>
<filter id="filter1_i_2052_30" x="9.5" y="9.5" width="26.7495" height="30.7505" filterUnits="userSpaceOnUse" color-interpolation-filters="sRGB">
<feFlood flood-opacity="0" result="BackgroundImageFix"/>
<feBlend mode="normal" in="SourceGraphic" in2="BackgroundImageFix" result="shape"/>
<feColorMatrix in="SourceAlpha" type="matrix" values="0 0 0 0 0 0 0 0 0 0 0 0 0 0 0 0 0 0 127 0" result="hardAlpha"/>
<feOffset dy="4"/>
<feGaussianBlur stdDeviation="2"/>
<feComposite in2="hardAlpha" operator="arithmetic" k2="-1" k3="1"/>
<feColorMatrix type="matrix" values="0 0 0 0 0 0 0 0 0 0 0 0 0 0 0 0 0 0 0.25 0"/>
<feBlend mode="normal" in2="shape" result="effect1_innerShadow_2052_30"/>
</filter>
<linearGradient id="paint0_linear_2052_30" x1="22.5" y1="0" x2="22.5" y2="45" gradientUnits="userSpaceOnUse">
<stop stop-color="#507DDD"/>
<stop offset="1" stop-color="#D5DFF2"/>
</linearGradient>
</defs>
</svg>
