<svg width="162" height="162" viewBox="0 0 162 162" fill="none" xmlns="http://www.w3.org/2000/svg">
<circle cx="81" cy="81" r="81" fill="url(#paint0_diamond_2037_3)"/>
<path d="M43.024 75.416L43.96 75.008L50.416 89.384L49.48 89.792L43.024 75.416ZM50.44 89.384L56.728 75.008L57.664 75.416L51.376 89.792L50.44 89.384ZM41.92 92V75.392H42.952V92H41.92ZM57.736 92V75.392H58.768V92H57.736ZM64.6793 83.432V82.4H71.9033V83.432H64.6793ZM70.2473 92V83.696H71.2793V92H70.2473ZM63.6953 86.12L64.1273 85.208L70.1993 88.136L69.7433 89.048L63.6953 86.12ZM61.5353 90.728L62.6633 85.904L63.6713 86.12L62.5433 90.944L61.5353 90.728ZM62.5673 92V90.968H69.9593V92H62.5673ZM74.5394 92V75.2H75.5714V92H74.5394ZM75.6434 85.568L80.8754 80.96L81.5714 81.752L76.3394 86.336L75.6434 85.568ZM75.7874 87.392V86.36H81.7634V87.392H75.7874ZM81.8114 92V87.416H82.8434V92H81.8114ZM89.4263 82.928L89.8583 81.992L97.3943 85.472L96.9623 86.408L89.4263 82.928ZM84.5303 86.552L88.6583 82.232L89.4023 82.928L85.2743 87.248L84.5303 86.552ZM86.1623 87.392V86.36H96.7703V87.392H86.1623ZM84.7703 90.944V87.272H85.7783V90.944H84.7703ZM85.8023 92V90.968H94.0823V92H85.8023ZM109.438 76.232V75.2H111.238V76.232H109.438ZM108.31 78.128V76.328H109.342V78.128H108.31ZM111.334 78.128V76.328H112.342V78.128H111.334ZM109.438 79.256V78.224H111.238V79.256H109.438ZM109.822 82.4H110.854V92H109.822V82.4ZM116.586 80.696L117.954 74.552L118.938 74.768L117.594 80.912L116.586 80.696ZM113.154 82.112V81.08H121.05V82.112H113.154ZM116.586 92V82.4H117.618V92H116.586Z" fill="black"/>
<defs>
<radialGradient id="paint0_diamond_2037_3" cx="0" cy="0" r="1" gradientUnits="userSpaceOnUse" gradientTransform="translate(81 81) rotate(90) scale(81)">
<stop stop-color="#507DDD"/>
<stop offset="0.435" stop-color="#507DDD" stop-opacity="0.35"/>
<stop offset="0.6" stop-color="#507DDD" stop-opacity="0.18"/>
<stop offset="1" stop-color="#D5DFF2" stop-opacity="0"/>
</radialGradient>
</defs>
</svg>
